HIERARCHY
ROOT Hips
{
	OFFSET 0.00000 0.00000 0.00000
	CHANNELS 6 Xposition Yposition Zposition Yrotation Zrotation Xrotation 
	JOINT Lumbar
	{
		OFFSET 0 0 0
		CHANNELS 3 Zrotation Xrotation Yrotation
		JOINT Neck
		{
			OFFSET 0.00 0.2701 0.00
			CHANNELS 3 Zrotation Xrotation Yrotation
			End Site
			{
				OFFSET 0.00 0.1379 0.00
			}
		}
		JOINT RightShoulder
		{
			OFFSET 0.0119 0.2289 0.1181
			CHANNELS 3 Zrotation Xrotation Yrotation
			JOINT RightElbow
			{
				OFFSET 0.00 -0.1475 0.00
				CHANNELS 2 Zrotation Yrotation
				JOINT RightWrist
				{
					OFFSET 0.00 -0.1605 0.00
					CHANNELS 2 Zrotation Xrotation
					End Site
					{
						OFFSET 0.0040 -0.1068 0.0006
					}
				}
			}
		}
		JOINT LeftShoulder
		{
			OFFSET 0.0119 0.2289 -0.1181
			CHANNELS 3 Zrotation Xrotation Yrotation
			JOINT LeftElbow
			{
				OFFSET 0.00 -0.1475 0.00
				CHANNELS 2 Zrotation Yrotation
				JOINT LeftWrist
				{
					OFFSET 0.00 -0.1605 0.00
					CHANNELS 2 Zrotation Xrotation
					End Site
					{
						OFFSET 0.0040 -0.1068 -0.0006
					}
				}
			}
		}
	}
	JOINT RightHip
	{
		OFFSET 0.0316 -0.0424 0.0458
		CHANNELS 3 Zrotation Xrotation Yrotation
		JOINT RightKnee
		{
			OFFSET 0.00 -0.2438 0.00
			CHANNELS 1 Zrotation
			JOINT RightAnkle
			{
				OFFSET 0.00 -0.2449 0.00
				CHANNELS 3 Zrotation Xrotation Yrotation
				End Site
				{
					OFFSET 0.1237 -0.0542 0.0051
				}
			}
		}
	}
	JOINT LeftHip
	{
		OFFSET 0.0316 -0.0424 -0.0458
		CHANNELS 3 Zrotation Xrotation Yrotation
		JOINT LeftKnee
		{
			OFFSET 0.00 -0.2438 0.00
			CHANNELS 1 Zrotation
			JOINT LeftAnkle
			{
				OFFSET 0.00 -0.2449 0.00
				CHANNELS 3 Zrotation Xrotation Yrotation
				End Site
				{
					OFFSET 0.1237 -0.0542 -0.0051
				}
			}
		}
	}
}
MOTION
Frames: 30
Frame Time: 0.02
-0.25198 -0.05032 0.00426 689.70704 -38.23736 6.95513 26.10953 6.32638 -6.01954 6.41879 -0.08677 -2.11994 20.05278 -13.11102 9.57804 34.7144 80.94316 -3.22067 0.53356 15.66158 10.89111 -7.79204 41.50722 -75.96746 -6.3033 -1.83952 63.66505 -1.18844 -11.34964 -25.93415 -7.57623 -1.99279 -3.2519 65.458 8.527 15.78449 -31.52275 -7.99694 2.54973 3.53542
-0.25377 -0.05086 0.0018 688.73293 -38.81496 6.9885 25.0536 6.47145 -5.55794 6.13693 -0.13794 -2.11994 21.17947 -12.71967 10.00887 33.42349 80.95966 -3.16213 0.39084 16.72418 10.27297 -8.23454 40.65146 -76.53021 -5.99379 -1.71888 64.25872 -1.15853 -11.94027 -25.60795 -7.6508 -1.84145 -3.18289 66.21908 8.68863 15.81253 -31.7069 -8.06506 2.63647 3.58341
-0.25562 -0.05149 -0.00046 687.79086 -39.37247 6.93378 23.93513 6.63373 -5.14742 5.78605 -0.17024 -2.11994 22.46367 -12.20916 10.19708 31.75462 80.9264 -3.14742 0.25831 17.72643 9.66505 -8.82921 39.79953 -77.19173 -5.61686 -1.59941 64.9155 -1.14492 -12.24679 -25.34073 -7.71091 -1.60291 -3.07164 67.03268 8.86383 15.53636 -31.96816 -8.13143 2.75011 3.64479
-0.25744 -0.05208 -0.0028 686.84512 -39.94051 6.92399 22.84507 6.78599 -4.72167 5.47138 -0.20992 -2.11994 23.69411 -11.75596 10.53283 30.23222 80.89957 -3.12493 0.13452 18.75989 9.04822 -9.34079 38.93161 -77.80837 -5.2682 -1.47682 65.54396 -1.11968 -12.68008 -25.0467 -7.77546 -1.41443 -2.98433 67.82263 9.03179 15.41024 -32.19172 -8.19821 2.8495 3.69901
-0.25929 -0.05267 -0.00518 685.85464 -40.50389 6.89252 21.75576 6.94729 -4.25964 5.13521 -0.25217 -2.11994 24.84709 -11.29278 10.72035 28.80794 80.94035 -3.04939 -0.04379 19.77346 8.44633 -9.91808 38.12655 -78.45169 -4.91348 -1.36308 66.1676 -1.11211 -13.13003 -24.74414 -7.85219 -1.18078 -2.87653 68.61336 9.20639 15.23602 -32.42507 -8.26719 2.95681 3.75752
-0.26109 -0.05329 -0.00744 684.96477 -41.07212 6.88625 20.64994 7.09332 -3.88572 4.82857 -0.28658 -2.11994 26.19578 -10.82208 11.15249 27.10259 80.83204 -3.09336 -0.10826 20.81847 7.81714 -10.39265 37.18856 -79.05216 -4.56202 -1.23349 66.81852 -1.07243 -13.47467 -24.47774 -7.8994 -1.02008 -2.80121 69.41453 9.36974 15.08957 -32.65733 -8.33088 3.0542 3.81034
-0.26276 -0.05399 -0.00941 684.34162 -41.65361 6.96378 19.51167 7.20101 -3.75027 4.61128 -0.29126 -2.11994 28.09603 -10.34342 12.35572 24.59163 80.28293 -3.48274 0.15642 21.92958 7.10793 -10.53769 35.90801 -79.51591 -4.23015 -1.04101 67.51684 -0.93054 -13.60428 -24.28295 -7.86222 -1.09287 -2.83026 70.22844 9.49645 15.08762 -32.86222 -8.38136 3.11845 3.8445
-0.26437 -0.05471 -0.01126 683.81918 -42.24127 7.07102 18.35921 7.29158 -3.70105 4.42779 -0.29144 -2.11994 30.18044 -9.86325 13.80545 21.83216 79.59237 -3.98684 0.53197 23.08071 6.37209 -10.57436 34.49033 -79.9283 -3.90721 -0.83594 68.24284 -0.75737 -13.63555 -24.12603 -7.79645 -1.24041 -2.89277 71.05121 9.61132 15.12471 -33.06438 -8.42635 3.17177 3.87246
-0.26599 -0.05542 -0.01315 683.25231 -42.82931 7.16968 17.21458 7.38461 -3.60744 4.23481 -0.30197 -2.11994 32.14773 -9.39429 15.11829 19.26751 78.99368 -4.42154 0.84552 24.23748 5.6497 -10.66554 33.11669 -80.35669 -3.58622 -0.64922 68.96497 -0.60481 -13.70704 -23.96197 -7.74747 -1.34698 -2.93719 71.87199 9.73297 15.14836 -33.27173 -8.47315 3.22965 3.90305
-0.26768 -0.05615 -0.0151 682.6802 -43.40368 7.24497 16.06205 7.49986 -3.53635 4.01468 -0.276 -2.11994 34.25763 -8.87848 16.52964 16.34861 78.27843 -4.92952 1.20882 25.29337 4.92021 -10.741 31.81387 -80.82004 -3.23711 -0.40983 69.65344 -0.42623 -13.78813 -23.75769 -7.68218 -1.4799 -2.99225 72.68675 9.84986 15.14463 -33.46566 -8.52277 3.2901 3.93485
-0.26921 -0.05684 -0.0169 682.14344 -44.0077 7.37654 14.92329 7.56557 -3.43964 3.85994 -0.32619 -2.11994 36.11707 -8.45935 17.7951 14.1077 77.77103 -5.31289 1.49424 26.56734 4.20124 -10.82015 30.33904 -81.19694 -2.9498 -0.27639 70.41656 -0.29372 -13.82887 -23.64497 -7.64405 -1.57698 -3.0337 73.51456 9.97288 15.20945 -33.68515 -8.56528 3.34234 3.96252
-0.27039 -0.05744 -0.01834 681.67135 -44.69699 7.66205 13.82766 7.48938 -3.23813 3.87836 -0.57998 -2.11994 37.19745 -8.32572 18.6192 13.85163 77.88954 -5.31235 1.54129 28.45443 3.49957 -10.94556 28.35309 -81.34626 -2.83064 -0.44466 71.38909 -0.29986 -13.78898 -23.77932 -7.68958 -1.55592 -3.02929 74.38332 10.12221 15.47007 -33.98178 -8.58915 3.37359 3.97987
-0.2714 -0.05801 -0.01963 681.23268 -45.41514 8.00268 12.74667 7.36534 -3.00987 3.96141 -0.91235 -2.11994 38.02652 -8.28656 19.28539 14.2788 78.2192 -5.18441 1.50542 30.55613 2.81293 -11.07558 26.2117 -81.40995 -2.774 -0.71844 72.43338 -0.35259 -13.71203 -24.00321 -7.7632 -1.49683 -3.01026 75.2631 10.27677 15.79692 -34.30258 -8.60614 3.39698 3.99328
-0.27247 -0.05858 -0.02098 680.78409 -46.11691 8.31453 11.65785 7.26948 -2.80227 4.01489 -1.21363 -2.11994 38.99772 -8.19291 20.01039 14.36087 78.44096 -5.12228 1.5049 32.54615 2.13117 -11.19671 24.18723 -81.5133 -2.68911 -0.94049 73.43822 -0.38145 -13.649 -24.18398 -7.82291 -1.45618 -2.99819 76.13317 10.42465 16.08436 -34.60833 -8.62652 3.42449 4.00871
-0.27363 -0.05919 -0.02237 680.31714 -46.83248 8.64253 10.57227 7.1468 -2.56241 4.07112 -1.49425 -2.11994 39.85773 -8.1482 20.79729 14.57952 78.70785 -5.03078 1.51792 34.59686 1.39843 -11.34384 21.96279 -81.61213 -2.60302 -1.17981 74.47386 -0.42076 -13.59461 -24.37783 -7.88636 -1.4132 -2.98594 77.02426 10.59051 16.412 -34.93195 -8.64555 3.44936 4.02298
-0.27455 -0.05972 -0.02364 679.89463 -47.52634 8.95032 9.4851 7.06765 -2.38151 4.13553 -1.83784 -2.11994 40.88701 -8.02368 21.41614 14.67993 78.93311 -4.9687 1.48184 36.57216 0.77654 -11.43806 20.11946 -81.70025 -2.53515 -1.40621 75.46085 -0.44961 -13.51486 -24.56335 -7.94918 -1.36507 -2.97016 77.87303 10.72006 16.67151 -35.22318 -8.66591 3.47798 4.0388
-0.27482 -0.06004 -0.02465 679.58988 -48.15047 9.18243 8.37782 7.13092 -2.37622 4.21471 -2.32574 -2.11994 42.44502 -7.65874 21.59784 14.28365 78.98933 -5.01853 1.32769 38.2809 0.45154 -11.39719 19.37111 -81.78349 -2.49419 -1.58973 76.30549 -0.43976 -13.37439 -24.71978 -8.00243 -1.31188 -2.94811 78.61065 10.75037 16.72402 -35.42691 -8.69097 3.51919 4.05984
-0.27484 -0.06028 -0.02554 679.32768 -48.75198 9.39316 7.27103 7.23788 -2.42977 4.2978 -2.87608 -2.11994 44.18035 -7.20963 21.61865 13.74737 78.99763 -5.10192 1.12691 39.90648 0.23923 -11.30204 19.01228 -81.85844 -2.47094 -1.75319 77.09654 -0.41767 -13.21036 -24.86183 -8.05435 -1.25448 -2.92286 79.30342 10.74366 16.706 -35.59583 -8.71772 3.56444 4.0826
-0.27496 -0.06054 -0.02647 679.04329 -49.36586 9.61797 6.17171 7.31789 -2.4516 4.37419 -3.40487 -2.11994 45.83467 -6.79709 21.71727 13.27755 79.03002 -5.16968 0.94878 41.57475 -0.02158 -11.22324 18.47178 -81.935 -2.44478 -1.91367 77.90607 -0.40022 -13.05726 -24.99961 -8.1077 -1.19871 -2.89898 80.01148 10.75237 16.72188 -35.77544 -8.74419 3.60771 4.10462
-0.27517 -0.06087 -0.02746 678.77185 -49.97289 9.82709 5.03931 7.42571 -2.49282 4.47534 -3.90833 -2.11994 47.48538 -6.39506 21.78325 12.81648 79.05948 -5.23455 0.76181 43.23305 -0.2954 -11.17617 17.94215 -82.01773 -2.39886 -2.12889 78.74396 -0.3881 -12.90111 -25.18518 -8.15867 -1.14281 -2.87497 80.74247 10.7669 16.73235 -35.97724 -8.76847 3.65136 4.12637
-0.27512 -0.06103 -0.0283 678.4835 -50.58723 10.0621 3.97713 7.48721 -2.5089 4.52287 -4.4774 -2.11994 49.18493 -5.94976 21.89041 12.29878 79.08147 -5.31522 0.58307 44.88556 -0.51298 -11.05444 17.4885 -82.08666 -2.39782 -2.22399 79.50782 -0.36159 -12.74715 -25.26784 -8.21371 -1.08671 -2.85066 81.41358 10.76078 16.73641 -36.12464 -8.79765 3.69521 4.14909
-0.27449 -0.06076 -0.02875 678.13403 -51.23727 10.38185 3.09716 7.4052 -2.43296 4.4388 -5.21985 -2.11994 51.00888 -5.4071 22.07159 11.62647 79.08965 -5.4301 0.43985 46.57438 -0.62449 -10.70267 17.11617 -82.12056 -2.51326 -1.99127 80.09049 -0.29624 -12.59712 -25.0589 -8.28191 -1.03076 -2.8262 81.94129 10.70371 16.73987 -36.1266 -8.84137 3.73921 4.17461
-0.27361 -0.06032 -0.02905 677.76656 -51.89327 10.72642 2.29015 7.27618 -2.33124 4.29677 -6.02406 -2.11994 52.86916 -4.82348 22.3158 10.9063 79.09218 -5.56039 0.3064 48.25237 -0.6792 -10.28466 16.81423 -82.14103 -2.67355 -1.63798 80.59803 -0.21694 -12.45169 -24.74847 -8.35379 -0.97501 -2.80163 82.408 10.62764 16.73888 -36.07556 -8.88975 3.78319 4.20097
-0.27283 -0.05996 -0.02941 677.40987 -52.54008 11.05433 1.45693 7.17223 -2.24696 4.16991 -6.79511 -2.11994 54.69476 -4.25658 22.58314 10.22384 79.09905 -5.68526 0.16831 49.91431 -0.74591 -9.92126 16.50217 -82.16747 -2.81498 -1.34011 81.13322 -0.14525 -12.30965 -24.49124 -8.42282 -0.91957 -2.77722 82.89559 10.56219 16.73985 -36.05114 -8.9351 3.82683 4.2266
-0.27209 -0.05959 -0.02981 677.044 -53.2142 11.40504 0.59344 7.05433 -2.14097 4.0916 -7.59121 -2.11994 56.61048 -3.69302 22.62412 9.46278 79.09552 -5.80526 0.03044 51.66536 -0.86745 -9.4522 16.10976 -82.19437 -2.95053 -1.03915 81.69489 -0.06803 -12.14404 -24.20375 -8.49688 -0.86226 -2.75219 83.41121 10.48712 16.73918 -36.01491 -8.98434 3.87211 4.25375
-0.27122 -0.0592 -0.03008 676.69206 -53.83227 11.71345 -0.18844 6.95351 -2.07276 3.89683 -8.3473 -2.11994 58.3356 -3.11611 23.15622 8.86429 79.11464 -5.93775 -0.10628 53.2251 -0.86221 -9.18858 15.89823 -82.21694 -3.10888 -0.71602 82.18313 0.00113 -12.02839 -23.95529 -8.56125 -0.80898 -2.7285 83.85366 10.428 16.74112 -35.99102 -9.02658 3.9139 4.27791
-0.27008 -0.05882 -0.03 676.38584 -54.30145 11.90727 -0.77318 6.91325 -2.11967 3.40788 -8.99115 -2.11994 59.60288 -2.49272 25.00634 8.65245 79.18186 -6.10728 -0.22969 54.29488 -0.52625 -9.50457 16.15068 -82.23358 -3.31749 -0.36359 82.49637 0.04212 -12.05445 -23.83973 -8.59878 -0.76649 -2.70831 84.11664 10.41834 16.75763 -36.01525 -9.04818 3.94627 4.29355
-0.26883 -0.05843 -0.02979 676.09352 -54.71276 12.05614 -1.27622 6.89113 -2.20424 2.80168 -9.5894 -2.11994 60.66112 -1.86092 27.35196 8.61935 79.27461 -6.28652 -0.3539 55.16617 -0.06441 -10.02998 16.5835 -82.2459 -3.5475 0.00695 82.7367 0.07499 -12.12994 -23.76679 -8.62628 -0.72815 -2.68953 84.30685 10.42555 16.77627 -36.05365 -9.06257 3.97507 4.30614
-0.26763 -0.05804 -0.02962 675.79276 -55.14587 12.22042 -1.81005 6.85934 -2.26855 2.23985 -10.19994 -2.11994 61.7643 -1.24687 29.48853 8.55486 79.36705 -6.45823 -0.48634 56.10545 0.34306 -10.46312 16.94465 -82.25838 -3.76906 0.37119 83.00463 0.11309 -12.17955 -23.67446 -8.65783 -0.68811 -2.67025 84.52558 10.42455 16.78997 -36.08503 -9.08038 4.00537 4.32018
-0.26643 -0.05765 -0.02951 675.50038 -55.59818 12.40714 -2.36867 6.83231 -2.34587 1.7117 -10.84985 -2.11994 63.08291 -0.5745 31.56582 8.28229 79.41414 -6.64767 -0.58418 57.13838 0.74145 -10.8842 17.26789 -82.27784 -3.98776 0.73314 83.29369 0.14497 -12.24324 -23.5794 -8.69163 -0.64725 -2.65035 84.76143 10.42465 16.81957 -36.11711 -9.09782 4.03624 4.334
